<svg xmlns="http://www.w3.org/2000/svg" width="150" height="46.37" viewBox="0 0 150 46.37"><defs><style>.a{fill:#4c585e;}.b{fill:#783f91;}</style></defs><path class="a" d="M37.433,40.349a8.987,8.987,0,0,1,6.094-11.72,8.613,8.613,0,0,1,10.356,6.522,9.43,9.43,0,0,1,.124,2.593c-.064.807-.333,1.1-1.134,1.2a10.16,10.16,0,0,1-1.3.05h-9.52a3.275,3.275,0,0,0,2.532,2.84,5.508,5.508,0,0,0,4.668-.968c.111-.079.208-.178.323-.254a.7.7,0,0,1,1.046.043,16.257,16.257,0,0,1,1.785,1.988.852.852,0,0,1-.187,1.222,8.958,8.958,0,0,1-4.488,2.344,9.22,9.22,0,0,1-10.3-5.86Zm7.928-7.754a3.823,3.823,0,0,0-3.08,2.46h6.754a3.813,3.813,0,0,0-3.422-2.469C45.53,32.585,45.446,32.589,45.362,32.595ZM20.395,46.071a.9.9,0,0,1-.916-.926q-.011-.239,0-.48v-14.6a3.991,3.991,0,0,1,0-.41.961.961,0,0,1,1.028-.964c.687-.018,1.371,0,2.052,0a1,1,0,0,1,1.069.773c.162.5.274,1.01.413,1.517,0,.072-.023.179.175.24.16-.222.294-.45.472-.664a5.213,5.213,0,0,1,4.033-2.142c3.486-.193,6.354,2.125,7.089,5.913a9.4,9.4,0,0,1,.156,1.772v8.633a4.4,4.4,0,0,1,0,.482.821.821,0,0,1-.879.86c-1.142.027-2.285.03-3.424,0-.609-.016-.8-.242-.849-.851a5.351,5.351,0,0,1,0-.548V36.386a3.077,3.077,0,0,0-2.612-3.05,3.123,3.123,0,0,0-3.459,3.052c-.018,2.72,0,5.439,0,8.157v.548c-.036.609-.319.96-.923.979q-.847.028-1.693.028Q21.258,46.1,20.395,46.071Zm47.978,0c-1.328,0-2.655-.02-3.98,0a1.252,1.252,0,0,1-1.251-.756c-.677-1.269-1.389-2.519-2.089-3.775-.084-.153-.138-.34-.362-.437-.66,1.171-1.328,2.343-1.964,3.533-.8,1.491-.9,1.46-1.842,1.431-.167-.005-.362-.011-.59-.007-1.1.014-2.194,0-3.293,0-.325,0-.669.019-.841-.321a.9.9,0,0,1,.2-.947q2.459-3.465,4.915-6.933a1.967,1.967,0,0,1,.2-.277c.292-.294.231-.554,0-.88q-2.365-3.322-4.689-6.668a3.654,3.654,0,0,1-.363-.586c-.211-.472-.041-.759.466-.8.292-.025.586,0,.878,0,1.029,0,2.053.036,3.086-.014a1.289,1.289,0,0,1,1.283.7c.725,1.189,1.465,2.371,2.2,3.555a1.479,1.479,0,0,0,.434.586,2.459,2.459,0,0,0,.512-.7c.646-1.075,1.3-2.147,1.92-3.24a1.5,1.5,0,0,1,1.546-.879c.694.037,1.389.029,2.084.021.446-.005.895-.01,1.342,0a3.31,3.31,0,0,1,.549.02.5.5,0,0,1,.412.272.491.491,0,0,1-.027.493,3.5,3.5,0,0,1-.292.455q-2.376,3.351-4.752,6.712c-.4.563-.451.388,0,1.039q2.371,3.322,4.74,6.637a3.467,3.467,0,0,1,.49.823c.2.552,0,.879-.586.955q-.085.005-.171.005C68.486,46.076,68.429,46.074,68.372,46.071ZM0,36.313V18.631H.02V1.36a5.66,5.66,0,0,1,0-.615A.736.736,0,0,1,1.1.085a2.771,2.771,0,0,1,.418.231L31.489,17.825a2.913,2.913,0,0,1,.561.381.817.817,0,0,1,0,1.31,2.9,2.9,0,0,1-.509.342L1.509,36.977a2.7,2.7,0,0,1-.24.135,1.357,1.357,0,0,1-.555.139C.276,37.251.007,36.923,0,36.313Zm1.975-5.67a1.8,1.8,0,0,0,.65-.2q11.232-4.431,22.466-8.871a4.143,4.143,0,0,0,.439-.186A.577.577,0,0,0,25.7,20.38a5.592,5.592,0,0,0-.628-.53L13.846,10.94,6.114,4.811c-.231-.182-.448-.427-.789-.272s-.319.469-.36.762v.068q-.379,2.607-.753,5.218-.656,4.54-1.3,9.083Q2.322,23.7,1.737,27.733c-.106.721-.226,1.442-.318,2.169-.063.512.128.746.555.729ZM3.188,27.81c.1-.741.208-1.51.319-2.277q.662-4.688,1.33-9.348.586-4.171,1.2-8.333c.116-.8.374-.905,1.011-.4q3.934,3.088,7.851,6.193c2.529,2,5.043,4.007,7.588,5.977.662.51.878.989-.189,1.412-5.983,2.344-11.951,4.734-17.926,7.11-.171.068-.34.138-.513.187a.9.9,0,0,1-.237.036C3.343,28.364,3.2,28.182,3.188,27.81ZM9.251,12.82a.554.554,0,0,1-.032.137Q8,17.128,6.788,21.3c-.163.568-.317,1.141-.489,1.711-.079.246-.05.4.206.425.186-.039.346-.064.5-.1l7.031-1.706c.977-.234,1.955-.462,2.93-.711.586-.151.627-.294.2-.751l-.144-.147-2.675-2.829Q12.175,14.907,10,12.624c-.217-.227-.349-.347-.448-.347C9.436,12.277,9.365,12.451,9.251,12.82Z" transform="translate(0 0)"/><path class="b" d="M10.69,21.379a10.566,10.566,0,0,1-5.4-1.464A10.7,10.7,0,0,1,3.116,3.132,10.409,10.409,0,0,1,5.278,1.463,10.72,10.72,0,0,1,13.843.468a10.894,10.894,0,0,1,2.8,1.348A.856.856,0,0,1,17,2.18a.586.586,0,0,1-.042.53L14.589,6.067a.545.545,0,0,1-.326.272.617.617,0,0,1-.429-.12,5.242,5.242,0,0,0-1.509-.8,5.432,5.432,0,0,0-1.757-.292A5.07,5.07,0,0,0,6.794,6.751,5.486,5.486,0,0,0,5.7,8.508a6.09,6.09,0,0,0,0,4.3,5.445,5.445,0,0,0,1.09,1.757,5.09,5.09,0,0,0,1.663,1.172,5.032,5.032,0,0,0,2.111.434,5.448,5.448,0,0,0,3.285-1.089.628.628,0,0,1,.42-.127.577.577,0,0,1,.337.253l2.414,3.459a.541.541,0,0,1,.041.515.9.9,0,0,1-.349.353A11.157,11.157,0,0,1,13.884,20.9a10.467,10.467,0,0,1-3.142.483Zm29.069-.454a.534.534,0,0,1-.154-.459V.919a.655.655,0,0,1,.154-.432A.585.585,0,0,1,40.22.305h4.1a.783.783,0,0,1,.447.167A.525.525,0,0,1,45,.919V20.466c0,.409-.228.615-.684.615h-4.1a.543.543,0,0,1-.461-.155ZM23.6,21.08h-4.1c-.393,0-.587-.182-.6-.545L18.881.919A.706.706,0,0,1,19.057.5a.541.541,0,0,1,.429-.19h4.15a.706.706,0,0,1,.434.176.537.537,0,0,1,.223.442V7.574h6.95V.923a.61.61,0,0,1,.629-.618h4.084a.859.859,0,0,1,.49.14.5.5,0,0,1,.208.449V20.466a.57.57,0,0,1-.179.459A.723.723,0,0,1,36,21.08H31.872a.672.672,0,0,1-.454-.155.581.581,0,0,1-.176-.459V12.513h-6.95v7.953a.568.568,0,0,1-.189.454.766.766,0,0,1-.472.162Zm24.414-.157a.568.568,0,0,1-.171-.456V.95A.675.675,0,0,1,48,.481a.584.584,0,0,1,.454-.176H62.329A.616.616,0,0,1,62.8.487a.694.694,0,0,1,.167.49V4.432a.727.727,0,0,1-.167.453.584.584,0,0,1-.49.217H53.251V8.571h6.993a.722.722,0,0,1,.439.125.477.477,0,0,1,.176.418v3.021a.578.578,0,0,1-.154.377.559.559,0,0,1-.445.183H53.251v3.58h9.4a.56.56,0,0,1,.626.639v3.515a.333.333,0,0,1-.111.25c-.034.26-.227.393-.57.393H48.42A.642.642,0,0,1,48.01,20.923Zm17.65.145a.537.537,0,0,1-.379-.185.521.521,0,0,1-.126-.4l0-19.533a.644.644,0,0,1,.162-.463A.553.553,0,0,1,65.7.305H79.078a.608.608,0,0,1,.483.182.7.7,0,0,1,.161.49V4.432a.731.731,0,0,1-.167.453.586.586,0,0,1-.49.217h-8.5V9.437h6.278a.688.688,0,0,1,.448.147.58.58,0,0,1,.182.468v3.34a.765.765,0,0,1-.159.457.527.527,0,0,1-.444.217H70.564v6.4c0,.4-.213.6-.645.6Z" transform="translate(70.277 24.991)"/></svg>